<?xml version="1.0" encoding="UTF-8"?>
<svg width="800" height="600" viewBox="0 0 800 600" xmlns="http://www.w3.org/2000/svg">
  <!-- Sky -->
  <rect width="800" height="600" fill="#87CEEB"/>
  
  <!-- Water -->
  <rect y="300" width="800" height="300" fill="#4169E1"/>
  
  <!-- Palm Trees -->
  <path d="M100 200 L100 400 L80 400 L100 200" fill="#228B22"/>
  <path d="M120 200 L120 400 L100 400 L120 200" fill="#228B22"/>
  <path d="M140 200 L140 400 L120 400 L140 200" fill="#228B22"/>
  
  <!-- Houseboat -->
  <rect x="400" y="350" width="200" height="60" fill="#8B4513"/>
  <rect x="450" y="300" width="100" height="50" fill="#8B4513"/>
  <path d="M400 410 L600 410 L580 430 L420 430 Z" fill="#8B4513"/>
  
  <!-- Sun -->
  <circle cx="700" cy="100" r="40" fill="#FFD700"/>
  
  <!-- Clouds -->
  <path d="M200 100 Q220 80 240 100 Q260 80 280 100 Q260 120 240 120 Q220 120 200 100" 
        fill="#FFFFFF"/>
  <path d="M400 80 Q420 60 440 80 Q460 60 480 80 Q460 100 440 100 Q420 100 400 80" 
        fill="#FFFFFF"/>
</svg> 