<?xml version="1.0" encoding="UTF-8"?>
<svg width="800" height="600" viewBox="0 0 800 600" xmlns="http://www.w3.org/2000/svg">
  <!-- Sky -->
  <rect width="800" height="600" fill="#87CEEB"/>
  
  <!-- Ground -->
  <rect y="400" width="800" height="200" fill="#90EE90"/>
  
  <!-- Taj Mahal Base -->
  <rect x="300" y="200" width="200" height="200" fill="#F5F5F5"/>
  
  <!-- Main Dome -->
  <path d="M400 150 Q450 200 450 250 Q450 300 400 350 Q350 300 350 250 Q350 200 400 150" 
        fill="#F5F5F5" stroke="#000" stroke-width="2"/>
  
  <!-- Side Domes -->
  <path d="M300 200 Q325 225 325 250 Q325 275 300 300" 
        fill="#F5F5F5" stroke="#000" stroke-width="2"/>
  <path d="M500 200 Q475 225 475 250 Q475 275 500 300" 
        fill="#F5F5F5" stroke="#000" stroke-width="2"/>
  
  <!-- Minarets -->
  <rect x="250" y="150" width="40" height="250" fill="#F5F5F5" stroke="#000" stroke-width="2"/>
  <rect x="510" y="150" width="40" height="250" fill="#F5F5F5" stroke="#000" stroke-width="2"/>
  
  <!-- Decorative Elements -->
  <circle cx="400" cy="250" r="20" fill="#FFD700"/>
  <circle cx="400" cy="250" r="15" fill="#FFA500"/>
</svg> 